<?xml version="1.0" encoding="iso-8859-1"?>
<!-- Uploaded to: SVG Repo, www.svgrepo.com, Generator: SVG Repo Mixer Tools -->
<!DOCTYPE svg PUBLIC "-//W3C//DTD SVG 1.1//EN" "http://www.w3.org/Graphics/SVG/1.1/DTD/svg11.dtd">
<svg fill="#000000" height="800px" width="800px" version="1.1" id="Capa_1" xmlns="http://www.w3.org/2000/svg" xmlns:xlink="http://www.w3.org/1999/xlink" 
	 viewBox="0 0 299.32 299.32" xml:space="preserve">
<g>
	<path d="M59.52,128.087c-11.895,0-21.572,9.678-21.572,21.573s9.678,21.573,21.572,21.573s21.572-9.678,21.572-21.573
		S71.414,128.087,59.52,128.087z M59.52,156.233c-3.624,0-6.572-2.949-6.572-6.573s2.948-6.573,6.572-6.573s6.572,2.949,6.572,6.573
		S63.144,156.233,59.52,156.233z"/>
	<path d="M297.349,150.704l-19.257-24.072c-1.708-2.135-4.294-3.378-7.028-3.378H151.472c-10.746-30.638-40.05-51.476-73.591-51.476
		C34.938,71.778,0,106.716,0,149.66s34.938,77.882,77.881,77.882c28.516,0,53.866-14.475,67.487-38.145h21.145l18.085,18.731
		c1.79,1.855,4.297,2.841,6.865,2.74c2.575-0.112,4.979-1.323,6.602-3.326l11.169-13.782l14.784,14.534
		c3.48,3.422,9.056,3.445,12.564,0.053l19.604-18.95h14.878c2.734,0,5.32-1.243,7.028-3.378l19.257-24.071
		C299.978,158.662,299.978,153.991,297.349,150.704z M266.738,171.397h-14.191c-2.334,0-4.577,0.907-6.255,2.529l-15.912,15.381
		l-15.593-15.329c-1.811-1.778-4.28-2.706-6.817-2.568c-2.533,0.144-4.888,1.349-6.484,3.32l-11.003,13.578l-13.675-14.163
		c-1.696-1.756-4.033-2.749-6.475-2.749H139.94c-3.465,0-6.622,1.989-8.118,5.115c-9.751,20.374-30.42,33.03-53.941,33.03
		C44.862,209.542,18,182.679,18,149.66s26.862-59.882,59.881-59.882c27.695,0,51.613,18.362,58.167,44.653
		c0.999,4.009,4.601,6.823,8.732,6.823h121.957l12.058,15.072L266.738,171.397z"/>
</g>
</svg>