<?xml version="1.0" encoding="iso-8859-1"?>
<!-- Uploaded to: SVG Repo, www.svgrepo.com, Generator: SVG Repo Mixer Tools -->
<svg fill="#000000" height="800px" width="800px" version="1.1" id="Layer_1" xmlns="http://www.w3.org/2000/svg" xmlns:xlink="http://www.w3.org/1999/xlink" 
	 viewBox="0 0 512 512" xml:space="preserve">
<g>
	<g>
		<path d="M470.687,188.647c-3.917-35.012-21.515-69.735-49.555-97.774c-58.64-58.641-141.902-67.254-189.55-19.606
			c-47.646,47.646-39.035,130.907,19.607,189.55c23.728,23.728,52.018,39.906,81.811,46.781c5.443,1.262,10.879-2.139,12.135-7.584
			c1.258-5.446-2.139-10.879-7.584-12.137c-26.092-6.023-51.007-20.329-72.05-41.374c-50.617-50.617-59.228-121.306-19.606-160.928
			c39.624-39.624,110.312-31.009,160.927,19.607c24.806,24.806,40.343,55.245,43.752,85.713c3.314,29.62-5.261,56.333-24.146,75.216
			c-13.742,13.742-31.842,22.133-52.342,24.265c-5.559,0.579-9.597,5.554-9.02,11.112c0.542,5.206,4.936,9.075,10.055,9.075
			c0.349,0,0.703-0.018,1.058-0.055c25.173-2.618,47.498-13.022,64.562-30.084C464.064,257.102,474.7,224.508,470.687,188.647z"/>
	</g>
</g>
<g>
	<g>
		<path d="M412.803,171.718c-3.428-16.151-12.8-32.531-26.391-46.122c-17.412-17.412-39.509-27.807-59.109-27.807
			c-12.375,0-22.991,4.075-30.7,11.783c-10.449,10.447-14.131,25.962-10.37,43.688c3.428,16.152,12.8,32.53,26.391,46.122
			c17.412,17.412,39.509,27.807,59.109,27.807c12.375,0,22.991-4.075,30.7-11.783C412.881,204.958,416.563,189.443,412.803,171.718z
			 M388.121,201.095c-4.84,4.84-11.583,5.856-16.388,5.856c-14.136,0-31.301-8.384-44.797-21.88
			c-10.856-10.856-18.28-23.646-20.904-36.013c-1.326-6.252-2.457-17.836,4.882-25.174c4.84-4.84,11.583-5.856,16.388-5.856
			c14.136,0,31.301,8.384,44.797,21.88c10.856,10.856,18.28,23.646,20.904,36.013C394.329,182.174,395.46,193.757,388.121,201.095z"
			/>
	</g>
</g>
<g>
	<g>
		<path d="M449.756,62.25C401.686,14.183,338.104-8.094,279.668,2.657c-5.496,1.012-9.133,6.288-8.121,11.783
			c1.011,5.496,6.277,9.134,11.783,8.121c51.886-9.546,108.753,10.639,152.111,54.001c66.668,66.668,75.28,162.501,19.607,218.173
			c-44.019,44.021-113.148,47.838-173.115,14.553c-21.766-12.081-41.117-28.348-57.169-47.348
			c-8.406-9.951-15.874-20.7-22.182-32.099c-0.042-0.076-0.093-0.143-0.138-0.217c-12.004-21.741-19.35-45.057-21.332-68.557
			c-3.408-40.416,9.431-77.389,36.156-104.112c9.232-9.233,19.773-16.889,31.332-22.754c4.983-2.53,6.973-8.619,4.444-13.603
			c-2.53-4.984-8.619-6.973-13.605-4.444c-13.464,6.834-25.74,15.746-36.484,26.491c-31.009,31.009-45.929,73.671-42.012,120.125
			c2.024,23.995,8.998,47.761,20.331,70.111L6.657,407.504c-1.761,1.761-2.81,4.109-2.948,6.597l-3.655,65.993
			c-0.464,8.382,2.457,16.353,8.225,22.448C13.967,508.553,21.964,512,30.221,512c0.563,0,1.125-0.016,1.696-0.047l65.992-3.654
			c2.487-0.139,4.834-1.187,6.596-2.949l31.895-31.895c1.897-1.897,2.963-4.471,2.963-7.155v-22.528h22.529
			c2.684,0,5.257-1.066,7.156-2.964l36.388-36.389c1.897-1.898,2.963-4.471,2.963-7.155v-22.529h22.529
			c2.684,0,5.257-1.066,7.156-2.964l41.05-41.05c27.425,13.896,56.416,20.959,84.454,20.957
			c39.537-0.003,77.169-14.024,105.776-42.631C533.06,245.348,524.447,136.942,449.756,62.25z M226.735,354.496h-28.457
			c-5.59,0-10.119,4.531-10.119,10.119v28.456l-30.459,30.461h-28.457c-5.59,0-10.119,4.531-10.119,10.119v28.456l-26.196,26.196
			l-62.132,3.441c-2.976,0.171-5.775-0.955-7.816-3.114c-1.905-2.013-2.871-4.648-2.719-7.419l3.442-62.132
			c0,0,167.981-167.981,167.983-167.983c-0.563,0.563,8.816,12.803,9.748,14.04c4.157,5.517,8.568,10.84,13.205,15.96
			c0.31,0.343,0.617,0.688,0.93,1.028L54.166,443.529c-3.952,3.952-3.952,10.36,0,14.31c1.977,1.975,4.567,2.964,7.156,2.964
			c2.589,0,5.18-0.988,7.156-2.964l161.404-161.403c5.035,4.618,10.277,9.026,15.712,13.169c0.127,0.097,0.252,0.197,0.379,0.293
			c4.89,3.721,9.875,7.192,14.938,10.422L226.735,354.496z"/>
	</g>
</g>
</svg>