<?xml version="1.0" encoding="UTF-8" standalone="no"?>
<!-- Created with Inkscape (http://www.inkscape.org/) -->

<svg
   width="10mm"
   height="22mm"
   viewBox="0 0 10 22"
   version="1.1"
   id="svg1"
   xml:space="preserve"
   inkscape:version="1.4 (e7c3feb100, 2024-10-09)"
   sodipodi:docname="abort.svg"
   xmlns:inkscape="http://www.inkscape.org/namespaces/inkscape"
   xmlns:sodipodi="http://sodipodi.sourceforge.net/DTD/sodipodi-0.dtd"
   xmlns="http://www.w3.org/2000/svg"
   xmlns:svg="http://www.w3.org/2000/svg"><sodipodi:namedview
     id="namedview1"
     pagecolor="#ffffff"
     bordercolor="#666666"
     borderopacity="1.0"
     inkscape:showpageshadow="2"
     inkscape:pageopacity="0.0"
     inkscape:pagecheckerboard="0"
     inkscape:deskcolor="#d1d1d1"
     inkscape:document-units="mm"
     showgrid="true"
     inkscape:zoom="4.0972419"
     inkscape:cx="56.623457"
     inkscape:cy="118.61638"
     inkscape:window-width="2560"
     inkscape:window-height="1371"
     inkscape:window-x="0"
     inkscape:window-y="0"
     inkscape:window-maximized="1"
     inkscape:current-layer="layer1"><inkscape:grid
       id="grid1"
       units="mm"
       originx="0"
       originy="0"
       spacingx="0.99999997"
       spacingy="0.99999997"
       empcolor="#0099e5"
       empopacity="0.30196078"
       color="#0099e5"
       opacity="0.14901961"
       empspacing="5"
       dotted="false"
       gridanglex="30"
       gridanglez="30"
       visible="true" /></sodipodi:namedview><defs
     id="defs1" /><g
     inkscape:label="Layer 1"
     inkscape:groupmode="layer"
     id="layer1"><ellipse
       style="fill:#a9a9a9;fill-opacity:1;stroke:none;stroke-width:1.16672;stroke-linecap:round"
       id="path2"
       cx="8.499999"
       cy="6.4554605"
       rx="3.0079638e-14"
       ry="0.061205089" /><rect
       style="fill:#a00d03;fill-opacity:1;stroke:none;stroke-width:0.428175;stroke-linecap:round;stroke-dasharray:none;stroke-opacity:1"
       id="rect12"
       width="9.9999981"
       height="21.999998"
       x="0"
       y="0"
       rx="3.9999998"
       ry="1.4666666" /><g
       id="text13"
       style="font-weight:600;font-size:12.7px;line-height:0.85;font-family:'URW Bookman';-inkscape-font-specification:'URW Bookman Semi-Bold';text-align:center;text-anchor:middle;fill:#ffffff;stroke-width:0.264583"
       aria-label="A&#10;B&#10;O&#10;R&#10;T"
       transform="scale(0.49999997,0.36666665)"><path
         d="M 11.168403,4.3512992 H 9.1999034 L 6.6853035,10.383799 c -0.4826,1.1176 -0.7747,1.4351 -1.4859,1.5494 l -0.2032,0.0254 v 1.0414 h 3.9242999 v -1.0414 l -0.2032,-0.0254 c -0.6858,-0.0889 -0.9398,-0.2159 -0.9398,-0.4572 0,-0.0889 0.0508,-0.3048 0.1143,-0.4572 l 0.4064,-1.0921999 h 2.7304996 l 0.381,1.0794999 c 0.0889,0.2286 0.1397,0.4445 0.1397,0.5461 0,0.2286 -0.2286,0.3429 -0.7493,0.381 l -0.3175,0.0254 v 1.0414 h 4.6355 v -1.0414 l -0.2032,-0.0254 c -0.7112,-0.127 -0.8128,-0.254 -1.2573,-1.3843 z m -2.4637996,4.4957999 0.9652,-2.4765 0.9397996,2.4765 z"
         id="path1" /><path
         d="m 5.6820035,15.146299 v 1.0414 l 0.254,0.0254 c 0.7366,0.1016 0.8763,0.2667 0.8636,1.0668 v 4.3815 c 0.0127,0.8001 -0.127,0.9652 -0.8636,1.0668 l -0.254,0.0254 v 1.0414 h 5.0799995 c 1.1811,0 1.7272,-0.1016 2.286,-0.4191 0.7366,-0.4318 1.1811,-1.2192 1.1811,-2.1209 0,-1.0287 -0.5588,-1.7653 -1.6002,-2.1082 0.762,-0.381 1.2192,-1.0541 1.2192,-1.8288 0,-0.5715 -0.254,-1.1303 -0.6985,-1.524 -0.508,-0.4572 -1.2954,-0.6477 -2.6416,-0.6477 z m 3.3400999,3.4417 v -1.5748 c 0,-0.254 0.0127,-0.3683 0.0635,-0.4445 0.0762,-0.1397 0.4445,-0.2159 0.9905996,-0.2159 1.016,0 1.6129,0.4318 1.6129,1.1557 0,0.6858 -0.6096,1.0795 -1.651,1.0795 z m 0,1.1684 h 1.0540996 c 1.2954,0 1.8415,0.4064 1.8415,1.3843 0,0.9525 -0.6731,1.524 -1.7907,1.524 -0.4952996,0 -0.8762996,-0.0889 -1.0032996,-0.2286 -0.0762,-0.0889 -0.1016,-0.1905 -0.1016,-0.4191 z"
         id="path3" /><path
         d="m 10.063504,25.776199 c -2.7178001,0 -4.699,1.9304 -4.699,4.572 0,1.4859 0.5588,2.6416 1.6890999,3.4925 0.8382,0.6223 1.7272,0.9144 2.8448,0.9144 2.7305001,0 4.7879001,-1.9685 4.7879001,-4.5593 0,-1.4097 -0.4699,-2.5019 -1.4605,-3.3274 -0.8509,-0.7112 -1.9431,-1.0922 -3.1623,-1.0922 z m 0.0127,1.2954 c 1.3589,0 2.1717,1.1684 2.1717,3.1496 0,1.9304 -0.9017,3.2385 -2.2479,3.2385 -0.6223001,0 -1.2319001,-0.3048 -1.5748001,-0.7874 -0.381,-0.5461 -0.6223,-1.4478 -0.6223,-2.3749 0,-1.9177 0.9144,-3.2258 2.2733001,-3.2258 z"
         id="path4" /><path
         d="m 11.892307,41.3972 c 1.3335,-0.3048 2.1209,-1.1811 2.1209,-2.3495 0,-0.8001 -0.4699,-1.5621 -1.1684,-1.8923 -0.6223,-0.2921 -1.397,-0.4191 -2.6035,-0.4191 H 5.3010069 v 1.0414 l 0.254,0.0254 c 0.7366,0.1016 0.8763,0.2667 0.8636,1.0668 v 4.3815 c 0.0127,0.800099 -0.127,0.965199 -0.8636,1.066799 l -0.254,0.0254 v 1.0414 h 4.4576999 v -1.0414 l -0.254,-0.0254 c -0.7366,-0.1016 -0.8763,-0.2667 -0.8636,-1.066799 v -1.5875 h 0.6604 l 2.7432002,3.721099 h 2.9464 v -1.0414 c -0.7366,-0.0635 -1.0033,-0.2159 -1.4986,-0.8763 z M 8.6411068,40.4574 v -1.9685 c 0,-0.3048 0.0254,-0.3683 0.1651,-0.4445 0.1651,-0.0889 0.4191,-0.127 0.8382,-0.127 0.6985002,0 1.0795002,0.0889 1.3589002,0.3175 0.254,0.2159 0.4191,0.5715 0.4191,0.9398 0,0.4318 -0.2286,0.8255 -0.6096,1.0287 -0.3175,0.1778 -0.6731,0.254 -1.2700002,0.254 z"
         id="path5" /><path
         d="M 13.454406,47.5313 H 6.4567064 l -0.9525,2.6289 0.9525,0.3556 c 0.254,-0.6096 0.5461,-1.0033 1.0033,-1.3462 0.3682999,-0.2794 0.8254999,-0.4572 1.1810999,-0.4572 0.1905,0 0.2159,0.0635 0.2159,0.4445 v 4.8895 c 0.0127,0.8001 -0.127,0.9652 -0.8636,1.0668 l -0.381,0.0254 V 56.18 h 4.7116997 v -1.0414 l -0.381,-0.0254 c -0.7366,-0.1016 -0.8763,-0.2667 -0.8636,-1.0668 v -4.9149 c 0,-0.4445 0,-0.4445 0.254,-0.4445 0.4572,0 0.9271,0.2413 1.397,0.6985 0.2921,0.2794 0.3937,0.4318 0.8255,1.1303 l 0.9271,-0.3556 z"
         id="path6" /></g></g></svg>
