/* XPM */
static char * abort_xpm[] = {
"32 96 42 1",
"         c None",
".        c #BFBFBD",
"+        c #C38882",
"@        c #C14A41",
"#        c #BB281E",
"$        c #B3180D",
"%        c #AB1106",
"&        c #A50E04",
"*        c #A20D03",
"=        c #A00D03",
"-        c #C3564E",
";        c #B0150A",
">        c #BD3026",
",        c #C3726C",
"'        c #C3736D",
")        c #B0150B",
"!        c #B4423A",
"~        c #BF5D57",
"{        c #AA271E",
"]        c #E9C8C6",
"^        c #FFFFFF",
"/        c #D4928E",
"(        c #CA7872",
"_        c #F4E3E2",
":        c #DFAEAB",
"<        c #BF5D56",
"[        c #DFAEAA",
"}        c #B4413A",
"|        c #A63128",
"1        c #B7938F",
"2        c #B7928E",
"3        c #AD5A53",
"4        c #B47D78",
"5        c #A62F26",
"6        c #BAA09D",
"7        c #B2746E",
"8        c #AC5049",
"9        c #A7362E",
"0        c #A4231A",
"a        c #A2170E",
"b        c #A11007",
"c        c #A00E04",
"........+@#$%&*==*&%$#@+........",
".....-;==================;-.....",
"...>========================>...",
".,============================,.",
"'=============================='",
")==============================)",
"=============!~~!===============",
"============{]^^]===============",
"============~^^^^===============",
"============/^^^^(==============",
"==========={]^]_^]{=============",
"===========~^^~:^^~=============",
"===========]^^{!^^~=============",
"===========^^^==^^:=============",
"==========~^^~==~^]{============",
"==========~^^^^^^^^~============",
"==========]^^^^^^^^/============",
"==========^^]~~~~^^:============",
"=========~^^~====~^^~===========",
"=========^^]{===={]^^===========",
"================================",
"================================",
"================================",
"=========={~~~~~~~{=============",
"==========~^^^^^^^^(============",
"==========~^^]:::^^]{===========",
"==========~^^~===/^^~===========",
"==========~^^~===~^^~===========",
"==========~^^~===]^]{===========",
"==========~^^^^^^^^~============",
"==========~^^^^^^^^]{===========",
"==========~^^~===!_^/===========",
"==========~^^~====:^^===========",
"==========~^^~====:^^===========",
"==========~^^~===!_^^===========",
"==========~^^^^^^^^^~===========",
"==========~^^^^^^^]!============",
"================================",
"================================",
"================================",
"=============!~~~~{=============",
"==========={]^^^^^^(============",
"=========={^^^^:]^^^/===========",
"==========/^^]~={(_^^{==========",
"==========^^]{====(^^~==========",
"=========!^^(====={]^]==========",
"=========~^^~======:^^==========",
"=========~^^~======:^^==========",
"=========~^^~======:^^==========",
"==========^^:=====~^^~==========",
"==========]^_(==={:^^!==========",
"==========~^^^:=!]^^^===========",
"===========/^^^^^^^]{===========",
"============!]^^^^/{============",
"================================",
"================================",
"================================",
"===========~~~~~~~~{============",
"===========^^^^^^^^^(===========",
"===========^^_::::^^]{==========",
"===========^^:====/^^~==========",
"===========^^:====~^^~==========",
"===========^^:====]^]{==========",
"===========^^_:::]^^(===========",
"===========^^^^^^^^:============",
"===========^^_:::]^^(===========",
"===========^^:====^^:===========",
"===========^^:====^^:===========",
"===========^^:====^^:===========",
"===========^^:====^^:===========",
"===========^^:====/^^~==========",
"================================",
"================================",
"================================",
"===========<<<<<<<<<<{==========",
"===========^^^^^^^^^^<==========",
"===========[[[]^^][[[}==========",
"==============<^^<==============",
"==============<^^<==============",
"==============<^^<==============",
"==============<^^<==============",
"==============<^^<==============",
"==============<^^<==============",
"==============<^^<==============",
"==============<^^<==============",
"==============<^^<==============",
"==============<^^<==============",
"==============<^^<==============",
"================================",
"================================",
"|==============================|",
"1==============================1",
".2============================2.",
"...3========================3...",
".....45==================54.....",
"........67890abccba09876........"};
