/* XPM */
static char * active_xpm[] = {
"32 32 14 1",
"         c None",
".        c #BFBFBD",
"+        c #A1A1A0",
"@        c #818180",
"#        c #6B6B6B",
"$        c #60605F",
"%        c #ACACAA",
"&        c #767675",
"*        c #71783C",
"=        c #70B117",
"-        c #54E00B",
";        c #3EFA0A",
">        c #3BFF0A",
",        c #65C810",
"................................",
"................................",
"................................",
"................................",
"................................",
"................................",
"................................",
"............+@#$$#@+............",
"..........%&*=-;;-=*&%..........",
".........+$=>>>>>>>>=$+.........",
"........%$,>>>>>>>>>>,$%........",
"........&=>>>>>>>>>>>>=&........",
".......+*>>>>>>>>>>>>>>*+.......",
".......@=>>>>>>>>>>>>>>=@.......",
".......#->>>>>>>>>>>>>>-#.......",
".......$;>>>>>>>>>>>>>>;$.......",
".......$;>>>>>>>>>>>>>>;$.......",
".......#->>>>>>>>>>>>>>-#.......",
".......@=>>>>>>>>>>>>>>=@.......",
".......+*>>>>>>>>>>>>>>*+.......",
"........&=>>>>>>>>>>>>=&........",
"........%$,>>>>>>>>>>,$%........",
".........+$=>>>>>>>>=$+.........",
"..........%&*=-;;-=*&%..........",
"............+@#$$#@+............",
"................................",
"................................",
"................................",
"................................",
"................................",
"................................",
"................................"};
