/* XPM */
static char * confirm_abort_xpm[] = {
"32 96 44 1",
"         c None",
".        c #BFBFBD",
"+        c #1D8700",
"@        c #C19895",
"#        c #CB4D4A",
"$        c #D52421",
"%        c #DF0F0D",
"&        c #E70604",
"*        c #EC0201",
"=        c #F00000",
"-        c #F20000",
";        c #C57572",
">        c #DA1816",
",        c #C95552",
"'        c #EF0100",
")        c #E10C0A",
"!        c #BFBDBB",
"~        c #E90403",
"{        c #F65555",
"]        c #F31C1C",
"^        c #D71F1C",
"/        c #FFFFFF",
"(        c #FEE2E2",
"_        c #FCC6C6",
":        c #FBAAAA",
"<        c #F53838",
"[        c #F98D8D",
"}        c #F87171",
"|        c #EF0B0B",
"1        c #D86160",
"2        c #DA5857",
"3        c #C7A3A1",
"4        c #E92020",
"5        c #C1B8B6",
"6        c #F10404",
"7        c #CB9391",
"8        c #D76463",
"9        c #E1403F",
"0        c #E82525",
"a        c #ED1313",
"b        c #F22424",
"c        c #F65757",
"d        c #F65656",
"e        c #F00909",
"...................+++++++++....",
"...................++++++++++...",
"...++++++++++++....++++++++++...",
"..++++++++++++++....+++++++++...",
"..++++++++++++++....+++++++++...",
".+++++++++++++++.....++++++++...",
".+++++++++++++++......+++++++...",
"++++++++++++++++......+++++++...",
"+++++++++++++++.......+++++++...",
"+++++++++++++.........+++++++...",
"++++++++++++++.......++++++++...",
"+++++++++++++++......++++++++...",
"+++++++++++++++++.+++++++++++...",
"+++++++++++++++++++++++++++++...",
"++++++++++++++++++++++++++++....",
"+++++++.++++++++++++++++++++....",
"+++++++..++++++++++++++++++.....",
"+++++++...++++++++++++++++......",
"+++++++....++++++++++++++.......",
".+++++........+++++++...........",
"................................",
"................................",
"................................",
"................................",
"........@#$%&*=--=*&%$#@........",
".....;>------------------>;.....",
"...,'----------------------',...",
"..)--------------------------)..",
"!~---{{{{{{{{{{---]{{{{{{{]---~!",
"^----//////////---{///////{----^",
"'----(///////_:---<_/////(<----'",
"-------(/////-------<///]-------",
"-------{/////[------[//[--------",
"--------_/////]----<//(---------",
"--------</////[----_//{---------",
"---------[/////<--{//_----------",
"---------]/////_--(//]----------",
"----------}/////<}//[-----------",
"-----------(////((/(]-----------",
"-----------{///////}------------",
"------------_/////_-------------",
"------------</////:-------------",
"-------------/////:-------------",
"-------------/////:-------------",
"-------------/////:-------------",
"-------------/////:-------------",
"-------------/////:-------------",
"------------]/////_-------------",
"----------://////////{----------",
"----------://////////{----------",
"-------{{{{{{{{{{{{{{{{{]-------",
"-------/////////////////{-------",
"-------:://////:::::_///{-------",
"---------://///------(//{-------",
"---------://///------://{-------",
"---------://///------}//{-------",
"---------://///-----------------",
"---------://///----::<----------",
"---------://///---]//{----------",
"---------://///---}//{----------",
"---------:///////////{----------",
"---------:///////////{----------",
"---------://///{{{://{----------",
"---------://///---{//{----------",
"---------://///----//{----------",
"---------://///-----------------",
"---------://///-------{//{------",
"---------://///-------://{------",
"---------://///-------://{------",
"---------_/////-------(//{------",
"-------//////////////////{------",
"-------//////////////////{------",
"--------------------------------",
"-------------<:_///(:[{---------",
"-----------]_///////////{-------",
"----------](////_{{{_///{-------",
"----------_////{-----///{-------",
"---------<////_------://{-------",
"---------[////:------[//{-------",
"---------://///]-----<::<-------",
"---------://///(<---------------",
"---------}///////_<-------------",
"---------](////////(}-----------",
"----------{//////////(<---------",
"-----------{(//////////{--------",
"------------][//////////<-------",
"--------------]}(///////:-------",
"-----------------<(//////-------",
"---------::}------](/////-------",
"---------///-------{/////-------",
"|--------///]------{////:------|",
"1--------///{------_////<------1",
".2-------///:]---{_////[------2.",
"..34-----/////////////}-----43..",
"....526--{:_///////([]---625....",
"........7890abcddcea0987........"};
