<?xml version="1.0" encoding="UTF-8" standalone="no"?>
<!-- Created with Inkscape (http://www.inkscape.org/) -->

<svg
   width="10mm"
   height="30mm"
   viewBox="0 0 10 30"
   version="1.1"
   id="svg1"
   xml:space="preserve"
   inkscape:version="1.3.1 (9b9bdc1480, 2023-11-25, custom)"
   sodipodi:docname="confirm-abort.svg"
   xmlns:inkscape="http://www.inkscape.org/namespaces/inkscape"
   xmlns:sodipodi="http://sodipodi.sourceforge.net/DTD/sodipodi-0.dtd"
   xmlns="http://www.w3.org/2000/svg"
   xmlns:svg="http://www.w3.org/2000/svg"><sodipodi:namedview
     id="namedview1"
     pagecolor="#ffffff"
     bordercolor="#666666"
     borderopacity="1.0"
     inkscape:showpageshadow="2"
     inkscape:pageopacity="0.0"
     inkscape:pagecheckerboard="0"
     inkscape:deskcolor="#d1d1d1"
     inkscape:document-units="mm"
     showgrid="true"
     inkscape:zoom="2.8971876"
     inkscape:cx="95.09222"
     inkscape:cy="120.63423"
     inkscape:window-width="2560"
     inkscape:window-height="1371"
     inkscape:window-x="0"
     inkscape:window-y="0"
     inkscape:window-maximized="1"
     inkscape:current-layer="layer1"><inkscape:grid
       id="grid1"
       units="mm"
       originx="0"
       originy="0"
       spacingx="0.99999997"
       spacingy="0.99999997"
       empcolor="#0099e5"
       empopacity="0.30196078"
       color="#0099e5"
       opacity="0.14901961"
       empspacing="5"
       dotted="false"
       gridanglex="30"
       gridanglez="30"
       visible="true" /></sodipodi:namedview><defs
     id="defs1" /><g
     inkscape:label="Layer 1"
     inkscape:groupmode="layer"
     id="layer1"><g
       id="g1"><ellipse
         style="fill:#a9a9a9;fill-opacity:1;stroke:none;stroke-width:1.32472;stroke-linecap:round"
         id="path2"
         cx="8.7304163"
         cy="8.5461273"
         rx="2.9904068e-14"
         ry="0.079366758" /><rect
         style="fill:#f20000;fill-opacity:1;stroke:none;stroke-width:0.497082;stroke-linecap:round;stroke-dasharray:none;stroke-opacity:1"
         id="rect12"
         width="9.9416294"
         height="19.883261"
         x="0.28002998"
         y="10.116737"
         rx="3.9766524"
         ry="1.9883262" /><path
         style="fill:none;stroke:#1d8700;stroke-width:1.98832;stroke-linecap:round;stroke-linejoin:miter;stroke-dasharray:none;stroke-opacity:1"
         d="M 6.2450087,1.1692706 C 9.724579,2.6605152 9.7557381,6.1932924 7.2391717,7.6313305 3.7596008,9.619656 1.2741931,5.1459227 1.2741931,5.1459227"
         id="path12"
         sodipodi:nodetypes="csc" /><path
         style="fill:none;stroke:#1d8700;stroke-width:1.98832;stroke-linecap:round;stroke-linejoin:miter;stroke-dasharray:none;stroke-opacity:1"
         d="M 1.3108508,8.8837418 1.2741931,5.1459227 h 3.4795707"
         id="path13" /><g
         id="text13"
         style="font-weight:600;font-size:16.9333px;line-height:0.75;font-family:'URW Bookman';-inkscape-font-specification:'URW Bookman Semi-Bold';text-align:center;text-anchor:middle;fill:#ffffff;stroke-width:0.264583"
         aria-label="Y&#10;E&#10;S"
         transform="matrix(0.49708156,0,0,0.49708156,0.28002997,0.17510767)"><path
           d="m 11.354674,28.123206 2.184395,-3.38666 c 0.880532,-1.371598 1.523997,-1.811863 2.692395,-1.879597 v -1.38853 h -5.18159 v 1.38853 c 0.982132,0.01693 1.253064,0.1016 1.253064,0.372533 0,0.169333 -0.101599,0.355599 -0.474132,0.982131 L 10.508009,26.396009 9.1194781,23.872947 C 8.8485453,23.364948 8.8485453,23.364948 8.8485453,23.263349 c 0,-0.287866 0.3555993,-0.389466 1.3207977,-0.4064 v -1.38853 H 3.7346887 v 1.38853 c 0.9990647,0.1016 1.5070637,0.491066 2.2859955,1.761064 l 2.370662,3.708392 v 1.828797 c 0.016933,1.066798 -0.169333,1.286931 -1.1514644,1.422397 l -0.4741324,0.03387 v 1.38853 H 12.98027 v -1.38853 l -0.474132,-0.03387 C 11.524007,31.442133 11.33774,31.222 11.354674,30.155202 Z"
           id="path1" /><path
           d="m 12.235201,36.860789 h -1.320797 c -0.0508,1.625596 -0.287866,1.879596 -1.7271966,1.845729 H 8.6961417 v -1.43933 c 0,-0.897465 0.016933,-1.066798 0.1523997,-1.236131 0.169333,-0.220133 0.7450652,-0.338666 1.6425306,-0.338666 1.49013,0 2.912527,0.897465 4.047058,2.539995 l 1.151465,-0.575732 -1.676397,-3.48826 H 4.2426838 v 1.38853 l 0.338666,0.03387 c 0.9821314,0.135466 1.1683977,0.355599 1.1514644,1.422397 v 5.841989 c 0.016933,1.066798 -0.169333,1.286931 -1.1514644,1.422397 l -0.338666,0.03387 v 1.38853 H 14.301064 l 1.862663,-3.996259 -1.185331,-0.558799 c -1.473197,2.116663 -2.946394,3.031061 -4.87679,3.031061 -0.7619989,0 -1.2022647,-0.135466 -1.3207978,-0.406399 -0.067733,-0.169333 -0.084666,-0.389466 -0.084666,-1.507064 v -1.998129 h 0.4741324 c 1.1853314,-0.01693 1.5070644,0.355599 1.7441304,1.862663 h 1.320797 z"
           id="path3" /><path
           d="m 12.167464,47.410235 c -0.677332,-0.474133 -1.727197,-0.761999 -2.7262616,-0.761999 -2.5230617,0 -4.3518581,1.54093 -4.3518581,3.691459 0,1.066798 0.4741324,1.99813 1.2869308,2.523062 0.5926655,0.372533 0.9313315,0.491066 2.9294609,0.982132 l 1.676397,0.423332 c 1.269997,0.321733 1.625596,0.575732 1.625596,1.202264 0,0.880532 -0.880531,1.507064 -2.133595,1.507064 -1.1853313,0 -2.3706623,-0.524932 -3.2173273,-1.405464 C 6.7996076,55.064086 6.4778749,54.640754 6.0376091,53.844889 l -1.2699975,0.423332 1.4054639,4.317992 h 0.9990647 l 0.2370662,-0.829732 c 0.7111986,0.524932 1.8795963,0.863598 3.0310606,0.863598 2.760128,0 4.792124,-1.727196 4.792124,-4.063992 0,-1.049864 -0.457199,-1.981196 -1.236131,-2.489195 -0.507999,-0.338666 -0.965198,-0.507999 -2.421462,-0.897465 l -1.54093,-0.406399 C 9.999998,50.746098 9.6782686,50.678358 9.2041362,50.576762 8.8824035,50.509032 8.5776041,50.407429 8.3236046,50.288896 7.9172054,50.119563 7.7140058,49.831696 7.7140058,49.476097 c 0,-0.694265 0.7789318,-1.185331 1.862663,-1.185331 0.9651982,0 2.0150622,0.457199 2.6585282,1.151465 0.287866,0.304799 0.507999,0.575732 1.049864,1.320797 l 1.219198,-0.457199 -1.117598,-3.43746 h -1.015998 z"
           id="path4" /></g></g></g></svg>
