/* XPM */
static char * fell_back_xpm[] = {
"32 32 31 1",
"         c None",
".        c #BFBFBD",
"+        c #CF908A",
"@        c #EB4336",
"#        c #FA1A0A",
"$        c #D28781",
"%        c #FC1505",
"&        c #F03527",
"*        c #A1A1A0",
"=        c #818180",
"-        c #6B6B6B",
";        c #60605F",
">        c #ACACAA",
",        c #767675",
"'        c #5E5E5E",
")        c #C72424",
"!        c #F60909",
"~        c #D51B1B",
"{        c #FC0707",
"]        c #DF1616",
"^        c #EE0D0D",
"/        c #924141",
"(        c #EA1010",
"_        c #B62E2D",
":        c #FB1606",
"<        c #E3574C",
"[        c #B52D2D",
"}        c #C03837",
"|        c #BB3333",
"1        c #D67C74",
"2        c #F13123",
"................................",
".+@##@+.........................",
"$%%%%%%$........................",
"&%%%%%%&........................",
"%%%%%%%%........................",
"&%%%%%%&........................",
"$%%%%%%$........................",
".%%%%%%.....*=-;;-=*............",
".%%%%%%...>,'''''''',>..........",
".%%%%%%..*;'''''''''';*.........",
".%%%%%%.>;'''''''''''';>........",
".%%%%%%.,'''''''''''''',........",
".%%%%%%*''''''''''''''''*.......",
".%%%%%%=''''''''''''''''=.......",
".%%%%%%-''''''''''')))))-.......",
"..%%%%.;''''''''!''~{{{{;.......",
"..%%%%.;'''''''']^'//{{{;.......",
"..%%%%.-'''''''''{(('///-.......",
"..%%%%.='''''''''{{{((('=.......",
"..%%%%.*'''''''''{{{{{{'*.......",
"..%%%%..,''''''''{{{{{{,........",
"..%%%%..>;'''''''{{{{{_>........",
"..:%%:...*;''''''{{{{_*.........",
"..<::<....>,'''''{[[}>..........",
"............*=-;;|=*............",
".12%21..........................",
"1%%%%%1.........................",
"2%%%%%2.........................",
"%%%%%%%.........................",
"2%%%%%2.........................",
"1%%%%%1.........................",
".12%21.........................."};
