/* XPM */
static char * inactive_xpm[] = {
"32 32 9 1",
"         c None",
".        c #BFBFBD",
"+        c #A1A1A0",
"@        c #818180",
"#        c #6B6B6B",
"$        c #60605F",
"%        c #ACACAA",
"&        c #767675",
"*        c #5E5E5E",
"................................",
"................................",
"................................",
"................................",
"................................",
"................................",
"................................",
"............+@#$$#@+............",
"..........%&********&%..........",
".........+$**********$+.........",
"........%$************$%........",
"........&**************&........",
".......+****************+.......",
".......@****************@.......",
".......#****************#.......",
".......$****************$.......",
".......$****************$.......",
".......#****************#.......",
".......@****************@.......",
".......+****************+.......",
"........&**************&........",
"........%$************$%........",
".........+$**********$+.........",
"..........%&********&%..........",
"............+@#$$#@+............",
"................................",
"................................",
"................................",
"................................",
"................................",
"................................",
"................................"};
