/* XPM */
static char * incomplete_xpm[] = {
"32 32 26 1",
"         c None",
".        c #BFBFBD",
"+        c #CF908A",
"@        c #EB4336",
"#        c #FA1A0A",
"$        c #D28781",
"%        c #FC1505",
"&        c #F03527",
"*        c #A1A1A0",
"=        c #818180",
"-        c #6B6B6B",
";        c #60605F",
">        c #ACACAA",
",        c #767675",
"'        c #71783C",
")        c #70B117",
"!        c #54E00B",
"~        c #3EFA0A",
"{        c #3BFF0A",
"]        c #65C810",
"^        c #93D481",
"/        c #A5A792",
"(        c #FB1606",
"_        c #E3574C",
":        c #D67C74",
"<        c #F13123",
"................................",
".........................+@##@+.",
"........................$%%%%%%$",
"........................&%%%%%%&",
"........................%%%%%%%%",
"........................&%%%%%%&",
"........................$%%%%%%$",
"............*=-;;-=*.....%%%%%%.",
"..........>,')!~~!)',>...%%%%%%.",
".........*;){{{{{{{{);*..%%%%%%.",
"........>;]{{{{{{{{{{];>.%%%%%%.",
"........,){{{{{{{{{{{{),.%%%%%%.",
".......*'{{{{{{{{{{{{{{'*%%%%%%.",
".......=){{{{{{{{{{{{{{)=%%%%%%.",
".......-!{{{{{{{{{{{{{{!-%%%%%%.",
".......;~{{{{{{^{{{{{{{~;.%%%%..",
".......;~{{{{{^.^^{{{{{~;.%%%%..",
".......-!{{{{{....^^^{{!-.%%%%..",
".......=){{{{{.......^^)=.%%%%..",
".......*'{{{{^........./*.%%%%..",
"........,){{{.............%%%%..",
"........>;]{{.............%%%%..",
".........*;){.............(%%(..",
"..........>,'............._((_..",
"............*...................",
".........................:<%<:..",
"........................:%%%%%:.",
"........................<%%%%%<.",
"........................%%%%%%%.",
"........................<%%%%%<.",
"........................:%%%%%:.",
".........................:<%<:.."};
