/* XPM */
static char * inprogress_xpm[] = {
"32 32 8 1",
"         c None",
".        c #BFBFBD",
"+        c #FFFA0A",
"@        c #A1A1A0",
"#        c #767675",
"$        c #5E5E5E",
"%        c #60605F",
"&        c #ACACAA",
"................................",
"................................",
"................................",
"................................",
"..............+++++.............",
".............+++++++....+++.....",
".....++++....++++++++..+++++....",
"...+++++++..@+++++++++.+++++....",
"..+++++++++#$$++++++++++++++....",
".+++++++++++$$$$$+++++++++++....",
".+++++++++++$$$$$$++++++++++....",
".++++++++++++$$$$$+++++++++.....",
"..+++++++++++$$$$++++++++++.....",
"....+++++++++$$$$+++++++++......",
"....+++++++++$$$$+++++++++......",
"....++++++++$$$$$$+++++++.......",
"....+++++$$$$$$$$$$$$$$$%.......",
"....+++++$$$$$$$$$$$$$$+++......",
"....+++++$$$$$$$+++$$$+++++.....",
"....++++++$$$$$+++++$++++++.....",
"....+++++++$$$++++++$++++++.....",
"....+++++++$$+++++++++++++......",
".....++++++$++++++++++++++......",
"......++++&#+++++++++++++.......",
"............++++++++++++........",
"............+++++++++++.........",
".............+++++++++..........",
"..............++++++++..........",
"...............+++++++..........",
"................+++++...........",
"................................",
"................................"};
